<svg width="420" height="420" viewBox="0 0 420 420" fill="none" xmlns="http://www.w3.org/2000/svg">
<path fill-rule="evenodd" clip-rule="evenodd" d="M171.167 415.578C197.755 407.318 238.451 392.425 239.556 390.474C240.206 389.239 241.311 389.239 241.311 390.409C241.311 391.84 244.496 394.051 246.577 394.051C247.617 394.051 248.462 393.791 248.462 393.401C248.462 393.076 249.372 392.295 250.412 391.775C252.362 390.8 252.492 390.8 254.378 392.425C257.433 394.962 261.854 394.441 267.509 390.8C269.2 389.759 270.565 389.044 270.565 389.174C270.565 389.369 269.525 390.669 268.224 392.1C265.494 395.157 265.559 397.043 268.55 398.799C272.71 401.27 274.66 400.23 284.217 390.214L291.042 383.125L296.243 383.06C303.264 382.995 310.935 381.955 313.925 380.719C315.291 380.134 317.696 378.443 319.321 376.882C320.946 375.321 324.977 371.679 328.292 368.818C335.963 362.119 349.55 346.901 358.521 335.065C360.992 331.748 363.137 329.017 363.267 329.017C363.462 329.017 363.072 329.992 362.487 331.163L361.447 333.244L363.137 331.293C364.047 330.253 366.322 326.741 368.142 323.489C370.028 320.302 372.693 315.88 374.123 313.799C377.764 308.401 378.414 305.604 379.194 292.272C379.974 279.135 379.389 269.12 376.854 252.211C375.228 241.09 375.423 237.448 377.764 232.376C378.544 230.815 379.584 227.823 380.169 225.612C380.819 223.466 381.664 221.71 382.119 221.71C383.484 221.71 386.02 218.133 386.93 214.947C387.45 212.93 387.58 210.459 387.32 207.533C387.06 205.126 386.8 200.249 386.735 196.672C386.54 187.307 385.305 184.185 380.234 180.023C379.75 179.628 379.289 179.252 378.85 178.894C371.996 173.304 370.506 172.088 370.345 170.717C370.301 170.336 370.359 169.942 370.433 169.44C370.449 169.331 370.466 169.217 370.483 169.097C370.873 166.106 368.793 158.367 366.387 154.269C364.567 151.083 364.437 148.872 365.932 143.409C366.972 139.312 366.972 139.247 365.412 136.125C364.177 133.589 362.812 132.223 359.041 129.686C356.376 127.866 354.101 126.045 353.906 125.589C353.776 125.134 354.101 123.573 354.686 122.142C355.271 120.777 355.726 118.696 355.726 117.655C355.726 115.379 352.735 111.672 349.875 110.501L347.99 109.721L349.16 107.315C350.98 103.738 351.37 101.657 351.5 94.2427C351.63 88.7798 351.37 86.8288 350.395 84.4876C349.16 81.496 349.225 79.3498 350.85 76.2932C352.41 73.2366 350.46 67.4486 346.69 64.0668C345.91 63.3514 345.324 62.0507 345.324 61.0752C345.324 58.6039 343.114 53.8564 341.164 52.0354C339.929 50.8648 339.604 50.0844 339.864 48.9138C340.514 46.5075 339.019 43.9711 335.963 42.0201C334.403 41.0446 332.843 40.2642 332.388 40.2642C331.998 40.2642 329.917 38.5083 327.772 36.4272C325.107 33.7607 322.897 32.265 320.686 31.4845C318.996 30.9643 316.396 29.5985 315.031 28.558C312.105 26.3468 311.52 26.2168 311.52 27.7125C311.52 28.2979 312.755 29.9237 314.185 31.2894C316.851 33.8258 316.851 33.8908 316.591 37.9229C316.071 46.7026 307.685 57.8235 298.388 62.3108C293.838 64.457 290.392 64.522 289.807 62.4409L289.742 62.195C289.219 60.2121 288.932 59.1264 289.157 58.1605C289.431 56.9916 290.454 55.9982 292.717 53.8025L292.863 53.6613C297.738 48.9138 300.859 44.5564 302.614 40.004C303.914 36.6873 303.979 35.5817 303.784 19.5832C303.784 17.6972 303.199 14.9008 302.484 13.3399C300.729 9.24278 293.838 3.71485 287.727 1.50369C282.331 -0.447346 279.666 -0.382312 272.06 1.95893C267.964 3.25961 267.444 3.25961 264.389 2.34913C259.578 0.918376 250.412 -0.317277 246.642 0.0729289C240.986 0.593204 237.54 2.93444 233.64 8.78754C229.934 14.3155 229.154 14.9658 223.759 16.5917C221.808 17.177 219.208 18.1525 217.908 18.8028C215.958 19.8434 210.367 25.3063 204.906 31.5496C203.996 32.5901 201.331 34.8013 198.925 36.4922C191.645 41.6299 187.874 50.0193 187.744 61.7255C187.744 65.3024 188.004 67.1884 188.914 68.8143C189.824 70.5052 190.019 72.001 189.824 75.1226C189.629 78.8296 189.304 79.4799 186.509 82.8617C184.364 85.4631 183.453 87.154 183.453 88.5197C183.453 89.5602 182.868 91.1861 182.153 92.0966C179.228 95.8036 178.253 102.567 179.618 109.396C180.333 112.843 180.268 113.363 178.643 117.135C177.668 119.411 176.628 121.687 176.303 122.208C173.637 126.37 173.182 128.126 172.727 134.434C172.272 140.482 172.402 141.588 173.702 145.555L175.262 149.977L173.767 154.139C171.297 161.358 170.452 165.325 170.452 170.723C170.452 174.82 169.997 177.162 168.502 181.779C166.681 187.047 166.486 188.217 166.616 194.721C166.811 201.68 166.746 202.005 164.666 205.907C163.561 208.118 162.261 211.825 161.806 214.036C160.831 219.304 161.091 230.165 162.391 234.587C163.496 238.619 166.681 242.391 170.387 244.212C172.207 245.057 173.052 245.838 173.052 246.813C173.052 247.594 173.637 248.829 174.352 249.675C175.067 250.52 175.652 252.016 175.652 253.057C175.652 254.357 176.368 255.658 177.668 257.024L179.683 259.04L177.603 268.145C176.433 273.152 175.392 278.875 175.327 280.891C175.327 282.842 174.937 285.119 174.482 285.899C174.027 286.68 173.702 288.565 173.702 290.191C173.702 291.752 173.247 294.484 172.727 296.305C172.207 298.126 171.427 301.898 171.102 304.694C170.777 307.425 170.127 310.092 169.802 310.547C169.412 311.002 168.892 316.01 168.697 321.928C168.502 327.781 168.111 333.179 167.851 333.96C167.526 334.805 167.591 335.65 167.981 336.041C168.306 336.366 169.022 338.707 169.542 341.178C170.062 343.585 170.777 346.446 171.232 347.422C172.272 350.023 180.463 356.331 182.868 356.331C185.209 356.331 185.209 356.656 182.868 358.608C181.893 359.518 180.658 361.079 180.203 362.119C179.358 364.266 177.473 364.981 175.392 364.07C174.677 363.68 171.102 362.9 167.591 362.314L161.091 361.209L160.31 356.656C158.295 345.731 156.02 333.699 155.5 331.293C155.175 329.862 154.135 324.464 153.16 319.262C151.469 309.767 149.974 305.995 147.114 303.393C146.334 302.678 145.749 302.353 145.749 302.613C145.749 302.873 144.968 302.483 144.058 301.767C143.083 300.987 141.848 300.402 141.198 300.402C140.613 300.402 138.858 299.947 137.232 299.426C135.672 298.906 131.447 298.191 127.871 297.8C118.965 296.89 54.8018 295.134 45.9606 295.589C34.1941 296.174 32.7639 297.345 33.934 305.474C34.3241 308.206 35.2342 312.368 35.8843 314.709C36.5344 317.051 38.1596 323.619 39.4598 329.342C44.7905 352.299 53.8266 382.605 57.2721 389.174C59.2223 392.946 60.1324 393.921 62.4077 395.027C64.358 395.937 65.1381 396.718 65.1381 397.693C65.1381 398.474 65.5281 399.449 66.0482 399.839C70.4688 403.546 121.76 415.383 148.999 418.959C152.769 419.48 156.02 419.935 156.215 420C156.41 420 163.106 418.049 171.167 415.578ZM243.651 370.314C243.976 368.883 244.236 365.501 244.236 362.835V357.957L240.986 357.632C237.15 357.242 236.37 356.787 234.875 354.315C234.29 353.34 232.015 351.324 229.804 349.828C227.659 348.397 224.669 346.056 223.174 344.625C220.183 341.699 219.858 341.634 217.388 342.934C215.113 344.105 213.617 345.796 213.032 347.877C212.837 348.787 212.187 350.413 211.667 351.519L210.757 353.6L206.401 351.974C203.931 351.129 201.721 350.088 201.396 349.763C199.966 348.397 196.585 349.178 193.855 351.454C192.36 352.689 190.734 353.73 190.279 353.73C188.394 353.73 177.278 344.3 175.782 341.503C174.092 338.187 172.792 328.757 173.247 323.359C173.702 317.831 176.628 302.808 178.318 297.085C178.968 294.679 180.008 292.533 180.528 292.337C181.178 292.077 181.503 291.037 181.503 289.151C181.503 286.484 181.698 286.159 184.949 283.948C188.849 281.282 191.905 280.436 200.421 279.851C207.767 279.331 208.742 279.721 214.137 285.249L217.843 289.021L216.218 294.874C215.308 298.126 213.292 305.214 211.667 310.677C208.547 321.538 208.417 322.123 209.717 324.399C210.757 326.285 221.808 338.642 229.479 346.511L234.875 352.039L237.41 349.438L239.946 346.901L238.646 340.073C235.525 323.684 230.129 305.084 226.099 296.825C225.254 295.004 224.604 293.508 224.669 293.443C224.799 293.313 227.009 293.573 229.674 293.963C238.646 295.199 239.686 295.264 240.661 294.614C241.181 294.289 241.441 293.833 241.246 293.638C241.051 293.443 237.67 292.337 233.77 291.232C225.579 288.891 222.263 287.135 218.688 283.233C212.187 276.209 210.757 270.941 212.252 259.95C214.007 247.399 214.332 242.326 213.292 242.651C209.912 243.757 205.621 265.478 207.442 272.437C207.675 273.272 207.909 274.159 208.108 274.912L208.108 274.915C208.296 275.626 208.452 276.218 208.547 276.534C208.872 277.51 208.352 277.64 204.581 277.64C197.235 277.64 191.319 278.875 185.924 281.542L180.918 283.948L182.543 281.152C184.169 278.42 184.364 276.469 183.193 275.559C182.283 274.908 184.494 264.373 188.134 252.276C190.084 245.643 191.319 240.18 191.384 237.969C191.384 235.888 191.84 233.937 192.36 233.286C195.025 230.23 189.889 229.97 185.989 232.961C182.868 235.302 181.373 237.579 179.553 242.651C178.253 246.358 176.302 247.724 176.302 244.862C176.302 242.001 175.132 239.985 172.792 239.009C170.127 237.904 169.737 237.253 167.916 230.36C166.941 226.718 166.486 222.751 166.356 218.003C166.226 211.305 166.356 210.719 168.371 206.297C170.387 201.745 170.452 201.484 170.062 195.241C169.672 189.388 169.802 188.543 171.427 184.315C172.792 180.673 173.247 178.007 173.702 171.309C174.157 164.285 174.612 161.944 176.237 157.456C178.643 151.083 178.708 148.872 176.888 143.929C175.652 140.742 175.587 139.507 175.977 134.304C176.302 129.426 176.693 127.866 178.253 125.459C179.228 123.833 180.268 121.817 180.528 120.907C180.788 119.996 181.568 118.305 182.283 117.135C183.453 115.249 183.583 114.403 183.063 110.957C181.568 99.9658 182.738 95.3483 188.719 88.5848C192.685 84.0974 193.92 81.3659 194.31 75.5779C194.57 72.1961 194.31 70.8954 192.945 67.8388C191.059 63.6766 190.864 61.5305 192.165 56.848C193.595 51.3201 195.285 48.5886 199.706 44.1663C202.956 40.9796 204.646 38.5733 206.726 34.3461C208.157 31.2895 210.757 27.2573 212.447 25.3713C215.308 22.1846 215.568 22.0546 216.088 23.2902C216.738 25.1112 217.323 24.9811 218.883 22.5749C219.923 20.949 221.158 20.2336 225.059 18.9329C230.585 17.177 232.21 15.9413 234.875 11.3239C237.605 6.64143 238.711 5.47081 241.766 3.90998C243.651 2.93447 245.732 2.54426 248.592 2.54426C252.817 2.54426 261.139 3.90998 264.259 5.0806C266.859 6.12115 269.005 5.92605 273.685 4.49529C282.396 1.76385 288.312 3.45474 295.593 10.6736C299.819 14.9008 302.159 19.1931 299.754 18.4777C298.258 17.9574 298.193 18.2826 299.624 20.949C301.899 25.3713 300.664 35.3866 296.828 42.8656C295.073 46.3774 286.817 57.3032 285.647 57.6934C285.257 57.8235 284.607 57.2382 284.282 56.3927C283.891 55.2872 284.021 54.7018 284.867 54.1165C286.622 52.8809 292.278 45.532 293.838 42.5404C294.553 41.1097 295.788 37.7929 296.568 35.1915L297.998 30.444L296.503 25.7615C294.683 20.0385 291.758 16.7218 287.467 15.5511C285.842 15.1609 284.087 14.5106 283.566 14.1854C281.096 12.6246 278.236 11.6491 276.22 11.6491C272.84 11.6491 266.989 13.405 262.179 15.8763C259.773 17.112 257.303 18.1525 256.783 18.1525C255.288 18.1525 253.663 18.8679 253.663 19.4532C253.663 20.3637 258.668 18.8679 263.999 16.2665C271.67 12.5596 279.406 11.9742 282.851 14.7707C283.299 15.1375 284.182 15.8109 285.13 16.5346L285.13 16.5348L285.132 16.5359L285.136 16.539L285.143 16.5448C285.704 16.9728 286.287 17.4179 286.817 17.8273C288.702 19.1931 290.197 21.1441 291.888 24.5909C295.918 32.7853 295.073 36.8174 286.687 48.7837C283.566 53.2711 281.876 55.1571 280.706 55.3522L279.081 55.6774L280.966 53.3361C282.071 52.1005 282.916 50.7998 282.916 50.4746C282.916 50.1494 284.152 47.8732 285.582 45.4019C287.597 42.0201 288.247 40.2642 288.247 38.1831C288.117 30.8342 277.131 24.2007 270.63 27.5825C266.859 29.4685 262.959 34.8664 259.968 42.2803C258.928 44.8816 253.403 49.4341 248.137 52.1655C244.821 53.7914 239.621 58.799 238.061 61.7906C236.435 64.8472 233.38 68.229 230.52 70.18C228.894 71.2206 227.399 72.1311 227.074 72.1311C226.814 72.1311 224.799 73.5618 222.589 75.3828C220.378 77.1387 216.868 79.4799 214.787 80.5205C210.302 82.7967 206.531 87.219 205.881 91.0561C205.621 92.4868 205.751 95.0882 206.206 96.8441C206.921 99.7707 206.856 100.356 205.556 103.022C204.061 106.144 202.436 107.315 197.755 108.55C193.075 109.786 187.679 116.289 188.134 120.126C188.329 121.817 188.459 121.752 192.88 117.59C196 114.729 198.34 113.103 200.226 112.517C201.786 112.062 203.151 111.802 203.216 111.932C203.237 111.974 203.311 112.088 203.42 112.258C203.655 112.622 204.053 113.24 204.451 113.948C205.361 115.379 206.076 115.704 208.157 115.704C210.497 115.704 210.887 115.964 211.667 117.85C212.642 120.126 214.007 127.085 214.462 132.288C215.113 139.051 209.327 148.872 202.956 151.928C197.365 154.595 193.14 157.456 188.394 161.944C181.828 168.057 178.838 175.081 178.968 184.315C178.968 184.803 178.963 185.252 178.958 185.655V185.656V185.657V185.657C178.943 186.998 178.934 187.83 179.133 187.884C179.46 187.971 180.349 185.954 182.699 180.622L182.703 180.612C183.139 179.622 183.626 178.518 184.169 177.292C187.484 169.878 187.809 169.357 193.465 164.025C196.715 161.033 200.941 157.586 202.956 156.416C211.342 151.473 215.828 146.595 217.973 140.092C219.273 136.06 218.948 129.621 217.323 125.524C216.543 123.638 216.023 121.882 216.218 121.752C216.348 121.622 217.323 121.882 218.363 122.403C219.533 123.053 220.898 124.744 222.003 126.955C223.629 130.337 223.694 130.662 222.784 132.808C222.263 134.044 222.003 135.214 222.198 135.41C222.784 135.995 221.028 141.978 219.468 144.774C218.623 146.27 217.908 148.026 217.908 148.677C217.843 150.823 215.373 155.375 212.122 159.147C210.367 161.163 208.742 163.504 208.547 164.22C208.287 165 208.027 169.097 207.897 173.325C207.572 182.559 206.596 186.006 202.566 192.315C200.876 194.916 199.771 197.257 199.966 197.517C200.681 198.168 205.751 195.111 207.442 192.965C208.352 191.859 209.912 188.608 210.952 185.681C212.512 181.129 212.772 179.503 212.772 173.52L212.707 166.561L215.958 161.813C217.778 159.147 219.403 156.09 219.598 154.92C220.118 152.253 220.898 152.709 221.483 155.895C221.743 157.586 221.548 159.342 220.768 161.293C220.118 162.854 219.598 165.651 219.533 167.406C219.468 169.227 219.078 171.374 218.623 172.219C217.973 173.39 217.843 175.276 218.168 179.178C218.753 185.811 218.038 188.478 214.657 193.355C213.227 195.371 211.472 198.233 210.757 199.598C208.417 204.216 209.197 204.671 213.357 201.094C217.388 197.647 220.443 192.445 221.353 187.632L221.369 187.553C222.134 183.599 222.145 183.54 223.889 184.25C225.514 184.966 225.579 185.096 224.799 187.372C223.434 191.274 220.573 195.631 216.998 199.208C210.497 205.647 209.977 206.622 209.522 213.841C209.002 220.475 208.222 222.686 205.296 225.157C203.476 226.783 196.39 230.165 195.025 230.165C194.375 230.165 193.855 230.425 193.855 230.815C193.855 231.14 195.22 231.335 196.975 231.27C200.746 231.075 208.547 227.173 210.952 224.377C212.837 222.1 214.072 217.158 213.942 212.215C213.812 207.988 214.853 206.037 221.288 198.753C226.294 193.095 229.609 187.697 229.609 185.161C229.609 183.86 231.17 183.665 236.24 184.38L239.166 184.771L237.996 189.453C236.5 195.566 235.46 206.362 235.46 216.572V224.897L241.051 228.018C248.462 232.181 257.368 238.944 260.033 242.521C261.269 244.147 262.764 245.708 263.479 246.033C265.429 246.943 270.11 245.253 273.555 242.391C277.131 239.465 277.716 238.619 276.025 238.619C274.985 238.619 274.985 238.489 276.155 237.253C277.846 235.302 283.566 230.815 284.282 230.815C284.607 230.815 285.322 231.79 285.907 232.961C286.492 234.067 287.597 235.693 288.312 236.538C289.417 237.709 289.547 238.164 288.832 238.554C287.467 239.4 288.897 239.855 293.578 240.05L293.966 240.065C295.903 240.142 297.027 240.186 297.836 239.703C298.954 239.037 299.471 237.364 300.704 233.382L300.794 233.091C301.704 230.23 303.524 225.287 304.824 222.165C307.099 216.703 308.27 214.817 308.27 216.637C308.27 217.223 308.465 217.223 308.92 216.507C309.505 215.662 309.57 215.662 309.57 216.507C309.635 218.198 310.87 215.792 310.87 214.036C310.87 212.475 315.681 204.476 318.216 201.68C319.646 200.119 319.256 199.208 317.111 198.818C316.201 198.688 315.031 199.663 313.21 202.135C311.78 204.021 310.48 205.256 310.35 204.801C309.765 203.11 311.065 198.168 312.56 196.347C314.575 194.005 315.421 191.209 315.421 186.917C315.421 183.275 316.006 182.234 321.011 176.316C326.797 169.553 326.992 164.675 322.051 154.27L319.841 149.522L321.141 145.165C323.742 136.255 324.067 134.499 323.677 130.792C323.547 128.711 322.767 125.589 322.051 123.768C321.336 122.012 320.296 119.151 319.776 117.395C318.801 114.338 318.866 114.143 320.686 110.046C321.726 107.705 322.767 104.648 322.962 103.283L323.417 100.746H327.057C331.283 100.746 335.118 99.1854 339.409 95.7385C343.244 92.747 345.259 90.4707 346.105 88.2596C347.275 85.0079 348.055 86.9589 347.6 91.9015C347.21 95.6085 346.82 96.8441 345.454 98.3399C342.724 101.266 335.183 104.193 326.992 105.624C324.197 106.079 323.872 106.859 325.952 107.965C329.462 109.851 340.579 106.209 345.194 101.527L348.055 98.7301L347.6 101.266C347.405 102.697 346.495 105.559 345.65 107.705C343.634 112.582 342.269 113.233 334.923 112.778C329.852 112.452 329.527 112.517 330.698 113.428C332.128 114.599 335.833 115.704 338.239 115.704C339.149 115.704 341.489 114.924 343.439 113.948L346.95 112.127L349.42 114.794C353.776 119.606 352.15 121.167 342.724 121.232C336.678 121.232 336.418 121.167 331.543 118.436C325.822 115.314 324.782 115.054 325.952 117.2C326.407 117.98 326.797 119.086 326.862 119.736C326.927 120.647 326.667 120.712 325.367 120.061C323.547 119.216 322.897 117.2 323.482 113.753C323.742 112.127 323.612 111.152 323.222 111.152C321.466 111.152 320.556 118.501 322.116 120.322C322.507 120.842 324.002 122.142 325.432 123.118C328.682 125.524 331.023 130.467 331.023 135.019C331.023 139.247 330.177 141.458 327.642 144.124C325.302 146.53 325.562 147.896 328.357 148.416C332.323 149.197 333.038 154.465 329.917 160.058C326.667 165.846 326.667 166.626 329.917 169.943C334.013 174.105 335.183 176.836 334.663 181.519C334.468 183.6 333.818 186.201 333.298 187.242C331.868 189.973 332.063 191.339 334.663 196.477C336.678 200.509 337.003 201.68 337.003 206.037C337.003 211.76 335.703 215.727 332.128 220.93C329.592 224.637 327.902 229.189 328.682 230.035C328.942 230.295 330.893 228.669 332.973 226.458L336.743 222.426L334.793 226.653C333.038 230.425 332.843 231.4 333.168 234.652C333.428 236.733 334.143 239.79 334.858 241.481C336.093 244.277 336.093 244.537 335.118 244.927C334.403 245.188 333.688 244.862 333.038 243.822C330.568 240.31 328.682 238.814 325.887 238.359C323.807 238.034 322.637 238.164 321.531 238.944C319.581 240.245 317.566 240.18 316.851 238.879C316.266 237.839 316.656 236.603 319.841 228.734C321.141 225.547 320.491 222.165 318.021 218.719C315.551 215.272 315.551 213.516 317.956 210.199C320.621 206.492 321.921 203.826 321.921 201.875C321.921 199.403 320.491 199.924 318.801 203.045C317.956 204.606 316.136 207.273 314.771 208.963C310.74 213.841 310.675 216.637 314.575 221.32C316.331 223.466 316.331 224.377 314.38 231.14C313.34 234.652 313.34 235.432 314.185 238.229C314.901 240.765 315.551 241.611 317.241 242.456C319.256 243.367 319.581 243.367 321.401 242.326C322.441 241.741 324.197 241.22 325.237 241.22C327.057 241.22 329.722 243.172 329.722 244.472C329.722 245.773 334.728 248.439 336.353 248.049C337.783 247.659 338.109 247.984 339.344 250.911C341.684 256.178 340.969 263.722 337.653 270.226C335.963 273.543 327.577 281.412 323.157 283.818C320.491 285.249 318.606 285.704 313.275 286.094C302.549 287.005 296.893 288.631 301.314 289.671C307.23 290.972 309.05 291.297 312.625 291.297C318.866 291.297 322.897 290.191 327.577 287.005C331.998 284.013 332.648 283.688 331.998 284.793C331.348 285.834 329.852 294.419 329.072 301.637C328.487 306.775 328.552 308.856 329.072 310.222C329.852 311.978 329.657 312.303 326.797 315.49C323.547 319.132 312.04 335 306.709 343.324C302.744 349.438 299.559 352.364 296.763 352.429C295.463 352.429 292.343 351.259 288.962 349.503C283.891 346.901 280.251 345.666 273.425 344.3C271.995 344.04 271.085 344.235 270.37 344.885C269.785 345.471 268.81 345.926 268.094 345.926C265.494 345.926 259.773 351.194 255.418 357.632C252.687 361.729 246.252 369.793 243.781 372.265C243.326 372.72 243.261 372.07 243.651 370.314ZM277.261 286.679L279.307 286.64C279.635 286.634 279.729 286.189 279.432 286.05L276.741 284.793C269.005 280.956 262.699 280.826 255.288 284.208L253.191 285.173C252.896 285.309 252.981 285.749 253.305 285.764L261.659 286.159C266.924 286.354 271.475 286.744 271.67 287.005C271.93 287.265 272.515 287.265 273.035 287.07C273.49 286.875 275.44 286.744 277.261 286.679ZM200.031 273.868L198.08 274.713C195.87 275.754 191.514 276.014 190.994 275.103C190.604 274.453 194.375 273.738 197.755 273.803L200.031 273.868ZM203.801 254.553C204.126 251.431 204.126 251.366 203.216 253.057C202.631 254.097 202.436 255.528 202.696 256.504C203.216 258.715 203.346 258.455 203.801 254.553ZM191.775 221.19C189.889 224.051 188.524 225.222 185.729 226.653C181.893 228.474 175.652 229.579 175.652 228.344C175.652 227.953 177.018 227.173 178.773 226.653C182.933 225.222 184.299 224.051 187.549 219.109C190.474 214.621 193.725 211.955 196.26 211.955C197.17 211.955 198.99 210.849 200.681 209.288C203.931 206.297 204.776 206.752 203.996 210.914C203.476 213.711 201.851 215.142 197.625 216.507C194.635 217.418 193.855 218.068 191.775 221.19ZM174.482 223.596C175.327 223.206 177.473 220.54 179.228 217.613C180.983 214.687 183.843 210.589 185.599 208.508C187.354 206.427 188.654 204.606 188.459 204.411C187.744 203.696 184.234 206.167 182.218 208.833C181.048 210.394 178.643 214.101 176.888 217.158C175.132 220.214 173.182 223.076 172.597 223.531C171.232 224.507 172.402 224.572 174.482 223.596ZM173.377 212.41C172.467 214.101 171.232 216.117 170.582 216.833C169.997 217.548 168.892 218.588 168.241 219.109C167.071 220.019 167.006 219.954 167.461 218.263C169.282 210.979 173.767 204.216 178.383 201.81C180.853 200.509 180.658 201.354 177.603 205.647C176.172 207.663 174.287 210.654 173.377 212.41ZM327.512 208.638C328.877 205.972 328.487 201.55 326.212 193.94L324.392 187.957L326.082 184.25C328.682 178.592 328.097 177.032 325.367 182.364L323.027 186.917L323.872 192.77C324.912 199.533 325.042 205.517 324.262 208.573C323.742 210.394 323.872 210.654 325.042 210.654C325.952 210.654 326.797 209.939 327.512 208.638ZM202.306 172.414C201.006 180.348 197.235 189.713 194.18 192.835C192.685 194.331 190.604 194.916 190.604 193.94C190.604 193.68 191.904 190.819 193.53 187.567C195.155 184.38 197.17 178.918 198.015 175.536C198.795 172.154 200.161 168.122 200.876 166.626C202.176 164.155 205.426 160.838 206.011 161.488C206.141 161.618 205.556 163.049 204.646 164.675C203.801 166.366 202.761 169.813 202.306 172.414ZM184.364 162.269C189.434 154.66 192.685 151.473 198.665 148.481C203.216 146.205 205.296 144.449 207.182 141.133C207.442 140.612 206.141 141.393 204.191 142.823C202.241 144.254 198.665 146.27 196.195 147.311C188.199 150.628 179.553 160.318 179.553 165.911C179.553 167.341 179.813 168.317 180.138 168.122C180.463 167.862 182.348 165.26 184.364 162.269ZM190.669 142.238C185.989 146.986 183.323 150.888 181.893 155.245C181.243 157.066 180.463 158.627 180.138 158.627C179.033 158.627 179.553 152.774 180.853 150.172C182.608 146.725 189.629 139.312 192.49 137.881C193.79 137.23 196.065 136.515 197.625 136.32C200.941 135.93 206.141 132.743 207.637 130.142C208.287 129.101 208.937 126.955 209.132 125.394C209.977 119.281 210.172 118.305 210.757 118.305C211.667 118.305 211.537 125.134 210.692 128.126C209.067 133.458 202.371 138.466 196.91 138.466C194.7 138.466 193.92 138.921 190.669 142.238ZM198.405 78.9597C199.835 75.3828 202.371 72.5863 204.971 71.8059C207.181 71.0905 205.036 70.115 202.306 70.5702C199.055 71.1555 197.17 72.5213 196.065 75.0576C195.09 77.3988 194.83 81.3659 195.61 82.0813C196.52 82.9918 196.975 82.4065 198.405 78.9597ZM237.41 40.9795C231.105 44.4264 227.529 48.9788 225.059 56.7179C224.279 59.1241 223.369 61.0752 223.044 61.0752C222.263 61.0752 222.328 60.1647 223.499 55.2221C225.254 47.548 229.804 42.4103 236.955 40.004C241.376 38.5082 241.506 38.7033 237.41 40.9795ZM241.571 48.5887C243.001 46.4425 245.667 43.451 247.552 42.0202C251.322 39.0937 251.647 38.2482 248.462 39.9391C244.756 41.8901 238.061 49.8243 238.061 52.2956C238.061 53.4012 239.361 52.0355 241.571 48.5887ZM228.179 31.8097C224.669 31.8097 222.588 33.2405 217.193 39.1586C213.097 43.711 210.887 45.0117 213.422 41.4348C216.153 37.6628 222.328 31.8097 224.669 30.8342C225.969 30.2489 227.724 29.9888 228.634 30.2489C230.454 30.7041 236.89 27.9727 239.166 25.8266C240.011 25.0462 240.661 24.721 240.661 25.1112C240.661 27.2573 232.275 31.8097 228.179 31.8097ZM252.947 29.3384C255.678 25.1762 259.578 21.8595 265.039 19.1931C271.995 15.8113 276.936 15.5511 283.631 18.2175C287.467 19.7133 287.207 18.5427 283.306 16.7868C275.505 13.2749 259.058 18.0875 253.337 25.5664C251.712 27.7126 249.762 31.8748 249.762 33.1754C249.762 34.216 249.957 34.0209 252.947 29.3384ZM269.655 26.3469C266.209 27.7776 261.919 29.9888 260.098 31.3545C258.343 32.6552 256.718 33.7608 256.523 33.7608C256.328 33.7608 257.043 32.6552 258.083 31.2895C260.423 28.363 264.324 26.1518 271.605 23.6154C276.286 21.9896 277.066 21.8595 278.886 22.6399C281.746 23.8105 281.486 24.7861 278.431 24.2658C276.416 23.9406 274.66 24.3308 269.655 26.3469ZM269.785 395.352L271.345 395.937C272.385 396.328 273.295 396.262 274.465 395.482C276.936 393.921 282.786 388.914 286.947 384.816C289.027 382.735 291.237 380.784 291.887 380.459C292.473 380.134 296.503 379.549 300.794 379.093C305.084 378.703 309.7 378.053 311.065 377.728C313.925 377.012 316.851 374.151 330.698 358.933C355.791 331.293 361.447 324.725 364.957 319.067C365.847 317.648 366.844 316.051 367.79 314.535L367.809 314.504L367.828 314.474L367.829 314.473C369.08 312.468 370.238 310.612 370.938 309.507C372.758 306.58 373.343 304.889 373.863 300.402C374.643 294.289 374.773 281.217 374.188 275.103L373.733 271.136H370.678C363.917 271.136 348.185 275.168 341.164 278.745C339.409 279.656 337.458 280.176 336.743 280.046C335.638 279.721 335.508 279.916 335.898 281.412C336.808 284.924 338.824 297.54 338.824 299.621C338.824 300.727 338.564 301.702 338.173 301.702C337.848 301.702 337.523 302.093 337.523 302.613C337.523 304.304 333.558 311.002 328.682 317.441C323.027 324.985 321.661 327.131 316.916 335.715C312.04 344.69 308.27 350.478 307.229 350.478C306.774 350.478 305.864 351.259 305.149 352.169C304.304 353.34 303.199 353.99 301.704 354.12C300.469 354.25 298.063 354.51 296.243 354.771C293.513 355.096 291.757 354.706 285.517 352.559C281.421 351.129 276.48 349.373 274.66 348.592C272.775 347.877 271.215 347.487 271.215 347.812C271.215 349.048 268.094 351.714 265.884 352.299C263.284 353.015 262.439 353.86 256.523 361.599C254.508 364.266 251.582 367.712 250.087 369.338C245.666 374.021 242.611 378.833 243.456 379.679C243.846 380.069 244.496 380.394 244.951 380.394C245.406 380.394 245.861 380.719 245.992 381.174C246.317 382.085 255.613 373.435 255.613 372.265C255.613 371.81 258.018 369.338 261.008 366.737C263.934 364.201 267.769 360.494 269.46 358.543C273.165 354.445 275.57 353.925 278.756 356.657C280.966 358.543 280.576 359.063 276.155 360.233C271.54 361.469 265.819 366.087 254.768 377.337C245.406 386.832 244.041 388.849 246.707 389.369C248.982 389.824 250.737 388.914 255.223 384.947C257.628 382.735 260.033 381.109 260.553 381.305C261.594 381.695 264.454 378.573 269.72 371.224C274.53 364.591 277.391 362.184 280.511 362.184C283.241 362.184 284.802 363.68 283.566 365.111C283.111 365.631 282.071 366.087 281.226 366.087C280.186 366.087 277.521 368.038 273.165 372.005C269.59 375.256 266.664 378.183 266.664 378.573C266.664 378.898 265.039 380.849 263.089 382.93C261.138 385.012 259.513 387.028 259.513 387.353C259.513 388.393 261.138 388.849 264.649 388.849C268.419 388.849 272.58 386.442 275.765 382.28C280.706 375.972 285.127 370.964 286.102 370.574C287.792 369.924 291.237 371.224 291.692 372.59C292.343 374.671 291.432 375.386 288.702 374.996C286.427 374.671 286.037 374.931 283.436 377.728C280.706 380.654 277.261 385.012 272.255 391.97L269.785 395.352ZM121.045 400.555C148.414 405.822 150.559 406.278 151.989 407.383C152.639 407.904 154.59 408.359 156.28 408.359H159.4L159.01 406.278C158.75 404.522 158.815 404.392 159.335 405.497C160.31 407.643 161.156 407.904 162.651 406.408C163.561 405.497 163.951 404.262 163.951 402.05C163.951 398.604 161.936 385.727 160.44 379.028C159.855 376.687 158.555 369.598 157.45 363.225C156.41 356.917 155.37 351.389 155.11 351.064C154.915 350.673 154.655 349.178 154.525 347.682C154.265 343.845 148.479 314.384 147.244 310.547C145.944 306.58 142.563 303.068 140.028 303.133C139.053 303.133 135.217 302.808 131.447 302.418C127.676 302.028 117.47 301.442 108.694 301.052C99.9175 300.662 90.2963 300.012 87.2409 299.621C84.1855 299.231 71.8339 298.776 59.7423 298.646C42.3851 298.451 37.5094 298.516 36.7293 299.166C35.3641 300.337 35.8192 304.369 38.8096 318.286C43.8152 341.699 54.1516 378.963 57.207 384.556C59.4823 388.783 62.0176 390.539 66.4382 391.125C74.2392 392.035 101.673 396.783 121.045 400.555ZM141.718 318.286C142.108 320.432 142.628 324.334 142.823 326.936C143.083 329.472 143.148 331.618 143.018 331.618C142.823 331.618 142.173 328.627 141.588 324.985C140.938 321.278 139.833 316.53 139.183 314.384C137.752 309.897 137.687 309.246 138.598 309.832C138.923 310.027 139.053 309.832 138.858 309.246C138.663 308.726 137.427 307.816 136.127 307.165C134.827 306.58 134.047 305.93 134.502 305.8C136.972 304.954 141.263 309.572 141.133 312.888C141.133 313.734 141.393 316.14 141.718 318.286ZM136.907 308.856C135.022 306.97 111.424 304.499 110.449 306.06C109.864 306.97 113.569 307.491 133.722 309.051C135.152 309.181 136.582 309.311 136.972 309.376C137.297 309.442 137.297 309.246 136.907 308.856ZM166.226 408.424C167.331 407.383 169.477 406.148 171.102 405.562C172.727 405.042 177.993 403.091 182.803 401.205C187.614 399.384 198.47 395.352 206.857 392.295C215.243 389.239 224.864 385.597 228.179 384.296C231.495 382.93 234.355 382.085 234.485 382.345C234.68 382.605 230.195 384.686 224.539 386.963C218.948 389.174 211.277 392.556 207.507 394.376C203.736 396.262 195.74 399.449 189.629 401.53C183.583 403.611 175.587 406.408 171.882 407.774C168.242 409.204 165.056 410.31 164.796 410.31C164.536 410.31 165.186 409.464 166.226 408.424ZM81.2601 401.79C94.0018 405.107 108.044 408.359 128.846 412.586C139.768 414.862 148.999 416.618 149.324 416.488C152.509 415.643 157.45 413.887 157.45 413.627C157.45 412.456 149.714 410.18 138.598 408.034C122.736 405.042 96.2771 399.384 84.3155 396.458C72.0939 393.466 69.3636 393.011 70.1437 394.116C70.285 394.399 70.6376 394.951 71.0553 395.605C71.4061 396.154 71.8028 396.774 72.1589 397.368C73.5241 399.644 74.0442 399.839 81.2601 401.79ZM156.735 409.66C156.02 409.66 155.63 409.985 155.825 410.31C156.02 410.7 156.67 410.96 157.19 410.96C157.71 410.96 158.1 410.7 158.1 410.31C158.1 409.985 157.515 409.66 156.735 409.66ZM165.641 399.319C165.056 396.783 164.601 392.491 164.601 389.694C164.601 386.898 164.211 382.085 163.691 378.963C162.976 373.826 162.976 373.24 163.886 373.24C164.796 373.175 164.796 373.11 163.821 372.33C163.171 371.875 162.651 370.769 162.651 369.859C162.651 368.948 162.326 367.322 161.936 366.152C161.546 364.981 161.351 363.94 161.481 363.81C161.611 363.615 164.146 363.875 167.071 364.266C171.557 364.916 172.402 365.241 172.402 366.282C172.402 367.322 172.727 367.452 175.002 367.062C176.441 366.81 177.084 366.698 177.261 366.934C177.404 367.125 177.243 367.542 176.953 368.298C176.628 369.208 175.782 371.029 175.067 372.395C173.962 374.606 173.897 375.126 174.677 377.012C175.522 378.963 175.847 379.093 178.643 379.093C181.503 379.093 181.633 379.158 181.243 380.719C180.723 382.67 182.283 385.987 183.908 386.507C185.014 386.833 192.035 388.198 193.725 388.393C194.505 388.523 198.145 381.109 200.486 374.346C201.786 370.574 202.046 370.444 204.386 372.46C205.166 373.11 205.426 373.956 205.166 374.931C204.906 376.037 205.036 376.492 205.686 376.492C206.206 376.492 207.442 377.403 208.482 378.443C210.042 380.069 210.822 380.394 212.837 380.199C214.202 380.069 215.763 379.549 216.413 378.963C219.273 376.427 221.613 375.777 224.799 376.557C226.424 377.012 227.919 377.728 228.114 378.183C228.309 378.833 229.609 379.093 231.95 379.093C233.9 379.093 235.46 379.354 235.46 379.679C235.46 379.698 235.461 379.716 235.461 379.733C235.462 379.775 235.463 379.814 235.458 379.852C235.392 380.33 234.354 380.675 220.237 385.364L218.558 385.922C211.212 388.328 196.65 393.336 186.249 397.043C175.782 400.75 167.071 403.806 166.941 403.806C166.811 403.806 166.161 401.79 165.641 399.319ZM215.308 392.295C222.003 389.239 234.225 384.816 234.68 385.272C235.59 386.117 232.535 387.548 222.849 390.8C212.122 394.376 209.782 394.832 215.308 392.295ZM257.823 389.954C257.303 389.434 255.613 390.149 255.613 390.865C255.613 391.19 256.198 391.45 256.913 391.45C258.148 391.45 258.603 390.735 257.823 389.954ZM185.924 382.02C185.209 380.394 186.379 372.135 188.394 365.436C189.174 362.9 189.174 362.445 188.264 361.989C187.354 361.469 187.484 361.144 189.044 359.518C193.4 354.966 199.185 352.559 200.876 354.575C201.266 354.966 203.281 356.201 205.426 357.307L209.262 359.193L208.287 363.16C207.767 365.306 207.246 367.127 207.116 367.257C207.051 367.387 206.336 367.062 205.556 366.607C204.581 366.021 204.256 365.306 204.451 364.005C205.036 359.583 200.031 364.005 198.73 369.013C198.21 371.029 197.365 373.305 196.845 374.086C196.39 374.866 195.61 376.557 195.22 377.923C194.05 381.5 191.774 383.646 188.979 383.646C187.159 383.646 186.509 383.321 185.924 382.02ZM208.027 375.842C207.052 375.842 208.157 377.207 209.717 377.793C212.057 378.768 212.772 378.508 214.983 376.167C217.323 373.696 218.168 370.444 219.143 359.518C219.663 353.6 220.378 351.844 221.808 352.754C222.394 353.145 222.524 355.746 222.329 362.9L222.003 372.59H223.564C224.344 372.59 225.254 372.655 225.514 372.785C225.709 372.85 225.839 370.704 225.774 368.038C225.709 365.371 225.904 362.835 226.164 362.445C226.879 361.469 231.885 358.933 233.185 358.933C234.485 358.933 234.42 358.478 232.925 356.852C232.015 355.941 231.17 355.616 230.195 355.876C229.089 356.201 227.854 355.356 224.409 352.104C221.531 349.312 220.583 348.393 219.565 348.306C219.065 348.264 218.548 348.422 217.778 348.657C215.763 349.243 215.308 349.763 214.658 352.234C214.202 353.795 214.007 355.226 214.267 355.486C214.462 355.681 214.267 356.331 213.747 356.917C212.707 358.087 209.652 368.623 209.002 372.915C208.807 374.541 208.352 375.842 208.027 375.842ZM180.983 375.191C179.553 374.021 179.553 373.891 180.528 371.419C181.243 369.728 182.348 368.428 184.103 367.452L186.574 366.087L185.404 369.143C182.613 376.502 182.607 376.497 181.1 375.285L180.983 375.191ZM229.287 371.049C229.674 373.631 229.684 373.698 233.705 374.671C235.599 375.117 237.35 375.563 237.976 375.722L237.995 375.727C238.089 375.751 238.156 375.768 238.19 375.777C238.451 375.777 238.971 375.321 239.296 374.671C240.076 373.175 242.156 362.38 241.766 361.339C241.376 360.168 235.525 360.819 232.21 362.38C229.674 363.615 229.284 364.135 229.089 366.087C228.959 367.322 229.024 369.533 229.284 371.029L229.287 371.049ZM220.768 329.602C223.304 332.334 227.269 337.016 229.609 339.943C231.95 342.869 234.03 345.275 234.225 345.275C234.42 345.275 233.965 341.699 233.185 337.341C232.405 332.919 231.495 327.586 231.235 325.44C230.975 323.294 229.414 316.985 227.724 311.458C226.034 305.93 224.214 299.491 223.759 297.15C222.393 290.386 221.093 289.476 219.988 294.744C219.764 295.792 219.152 298.497 218.4 301.821L218.395 301.844L218.386 301.883L218.383 301.898L218.378 301.92L218.378 301.921C217.828 304.349 217.207 307.098 216.608 309.767C216.392 310.719 216.189 311.595 216.002 312.404C214.765 317.76 214.205 320.182 214.85 322.225C215.382 323.912 216.736 325.34 219.207 327.947C219.685 328.451 220.205 328.999 220.768 329.602ZM334.793 301.572C335.378 294.744 336.158 293.183 336.028 299.036C335.963 302.353 335.638 304.629 335.183 304.759C334.663 304.954 334.533 303.914 334.793 301.572ZM339.604 271.331C345.129 262.357 345.78 258.194 342.984 250.52L341.294 245.838L344.154 242.586C346.235 240.245 347.21 238.489 347.795 235.953C349.03 230.685 350.915 227.303 354.101 224.702L356.896 222.36L357.416 226.718C358.261 234.067 358.001 243.171 356.831 249.35C355.856 254.357 355.856 255.268 356.636 256.048C357.416 256.829 357.611 256.373 357.936 252.536C358.456 246.488 359.301 240.635 360.601 234.392C361.382 230.62 361.512 227.693 361.252 223.661C360.731 217.288 360.731 216.377 361.252 213.256C361.577 211.5 361.382 210.589 360.276 209.158C358.261 206.622 357.676 206.947 357.676 210.654C357.676 213.321 357.221 214.686 355.466 217.418C354.231 219.304 352.345 221.515 351.305 222.295C348.51 224.246 345.519 229.449 344.284 234.327C343.569 237.123 342.659 239.074 341.424 240.245L339.539 242.066L338.434 238.229C337.393 234.522 337.393 234.132 338.759 227.238C340.319 219.109 340.449 217.548 339.409 218.198C338.954 218.458 338.824 218.198 339.019 217.418C340.124 213.386 340.904 206.817 340.579 204.086C340.319 202.07 339.149 199.013 337.523 196.087C334.533 190.624 334.403 188.933 336.418 184.25L337.848 180.934L343.374 187.047C346.43 190.429 350.005 194.656 351.37 196.542C354.231 200.444 357.026 203.501 357.806 203.501C358.066 203.501 358.326 202.85 358.326 202.005C358.326 199.013 354.816 193.55 348.445 186.722C344.869 182.885 341.294 178.397 340.384 176.706C339.539 174.95 338.434 173.585 337.978 173.585C337.523 173.585 336.613 172.739 336.028 171.634C335.378 170.593 334.013 168.837 332.908 167.797C332.844 167.731 332.782 167.667 332.721 167.606C332.661 167.545 332.603 167.486 332.547 167.429L332.541 167.422C331.942 166.816 331.559 166.428 331.43 165.969C331.202 165.158 331.768 164.124 333.333 161.261L333.585 160.799C333.681 160.623 333.78 160.441 333.883 160.253C334.468 159.212 334.923 157.781 334.923 157.196C334.923 154.92 336.028 155.57 337.848 159.082C339.799 162.854 340.059 163.049 350.59 169.227C359.821 174.625 361.837 177.227 364.047 186.852C364.827 189.973 365.542 192.77 365.737 192.965C366.387 193.615 368.077 191.664 368.077 190.233C368.012 187.567 365.607 179.438 363.917 176.576C361.707 172.804 357.676 169.357 351.435 165.846C343.179 161.228 342.334 160.513 339.799 156.221C338.499 153.944 337.003 152.123 336.483 152.123C336.028 152.123 335.183 151.148 334.663 149.912C334.143 148.742 333.168 147.311 332.388 146.791L331.023 145.815L332.323 142.953C333.038 141.393 333.623 138.856 333.623 137.296V134.564L337.198 137.491C339.214 139.116 341.164 140.417 341.619 140.417C342.074 140.417 344.869 141.588 347.86 143.019C357.026 147.441 363.982 155.115 366.127 163.179C366.582 164.805 367.492 167.211 368.207 168.577C368.923 170.008 369.313 171.308 369.118 171.504L369.09 171.531C368.993 171.628 368.92 171.703 368.837 171.714C368.57 171.751 368.212 171.127 366.699 168.487L366.698 168.486L366.698 168.485L366.697 168.484L366.697 168.484L366.452 168.057C362.682 161.488 354.231 154.335 346.105 150.823C342.529 149.262 338.824 145.685 337.068 142.043C335.768 139.312 334.923 139.116 334.923 141.588C334.923 145.165 339.994 151.083 345.194 153.619C350.005 156.025 355.791 159.927 358.196 162.464C359.431 163.764 362.032 167.211 363.982 170.203C365.932 173.129 367.882 175.471 368.272 175.406C369.053 175.211 372.888 178.137 378.284 182.95C381.209 185.551 383.029 189.843 383.029 194.005V196.022L381.404 194.071C380.494 193.03 378.804 190.168 377.699 187.762C375.553 183.275 374.318 182.364 373.603 184.641C372.953 186.787 374.188 189.908 378.154 195.696C380.234 198.753 382.379 202.265 382.899 203.501C384.069 206.297 384.134 212.345 383.029 214.882L382.184 216.833L381.729 213.256C381.144 208.313 378.934 201.745 375.813 195.566C371.848 187.632 371.848 188.282 376.398 204.151C379.324 214.231 379.519 216.507 377.829 223.011C377.049 226.002 376.268 228.799 376.073 229.124C375.423 230.1 372.758 222.1 370.613 212.996C369.508 208.313 368.207 204.021 367.687 203.501C366.907 202.72 366.777 202.72 366.777 203.826C366.777 204.541 367.557 208.963 368.467 213.581C370.483 224.116 371.978 234.132 371.978 238.034C371.978 243.432 365.997 255.463 363.267 255.528C362.942 255.528 363.007 255.138 363.397 254.683C363.787 254.227 365.022 251.366 366.127 248.374C367.752 243.887 368.207 241.806 368.272 237.318C368.337 231.921 366.582 223.011 365.412 223.011C364.372 223.011 363.722 226.718 364.242 229.839C365.542 237.969 363.787 247.529 359.886 253.252C358.131 255.853 358.261 257.804 360.146 257.349C360.796 257.154 361.642 257.414 362.097 257.869C362.682 258.52 363.332 258.585 364.957 257.999C367.817 257.024 368.597 256.373 370.743 252.992L372.498 250.065L372.888 252.992C373.083 254.553 373.343 258.39 373.538 261.576L373.863 267.234H370.093C363.007 267.234 347.275 271.136 340.644 274.453C339.279 275.168 337.913 275.689 337.588 275.689C337.263 275.689 338.174 273.738 339.604 271.331ZM346.104 222.621C350.98 213.646 352.605 205.647 350.59 199.794C349.42 196.347 345.909 191.209 343.829 189.843C341.814 188.608 342.009 189.388 344.674 193.355C347.535 197.517 349.875 203.24 349.875 205.972C349.875 209.289 347.925 215.532 344.999 221.255C341.814 227.628 341.749 227.758 342.854 227.433C343.309 227.238 344.739 225.092 346.104 222.621ZM342.594 212.801C343.049 212.605 343.634 212.67 343.829 212.866C344.089 213.061 343.699 213.256 342.984 213.191C342.269 213.191 342.074 212.996 342.594 212.801ZM363.007 200.574C364.567 197.192 361.186 187.827 356.506 182.69C355.076 181.064 351.305 178.007 348.055 175.861C342.854 172.349 341.489 171.113 338.499 166.756C337.653 165.521 337.588 165.521 337.198 166.626C335.963 169.748 339.019 173.715 347.405 179.893C350.525 182.169 353.971 185.291 355.076 186.787C357.156 189.648 359.626 196.542 359.626 199.533C359.626 202.655 361.772 203.305 363.007 200.574ZM261.464 238.034C256.783 233.221 247.682 227.108 242.546 225.352L238.386 223.921L238.191 216.182C237.996 207.207 239.426 193.095 241.116 187.892C242.286 184.38 242.351 184.315 244.691 184.51C245.992 184.641 247.227 184.445 247.487 184.055C247.682 183.665 249.307 182.755 251.062 181.974C252.882 181.194 255.288 179.438 256.588 178.072L258.798 175.601L259.513 178.332C260.814 183.275 261.204 184.185 262.309 184.901C263.089 185.421 263.609 185.356 264.194 184.771C264.974 183.99 263.674 177.747 259.773 163.374C259.448 162.269 259.708 161.813 260.553 161.488C266.274 159.667 280.771 151.928 285.582 148.091C287.402 146.66 289.937 144.384 291.172 142.953C293.773 140.092 295.008 139.702 294.358 141.913C292.148 149.262 292.538 157.651 295.398 166.626C295.528 167.021 295.649 167.377 295.76 167.703L295.76 167.704L295.76 167.704C296.224 169.071 296.502 169.891 296.46 170.694C296.397 171.9 295.613 173.068 293.651 175.987L293.651 175.988L293.637 176.007C293.323 176.475 292.979 176.987 292.603 177.552C289.482 182.234 288.767 184.641 288.767 190.168V194.851L284.932 197.517C282.266 199.403 280.706 201.094 279.796 203.11C277.001 208.963 277.261 210.654 281.551 215.142C284.087 217.808 284.217 218.068 284.217 222.165V226.328L277.001 233.546C273.035 237.448 269.655 240.505 269.46 240.31C269.265 240.115 269.85 237.253 270.76 233.937C272.84 226.328 273.295 224.311 272.84 224.311C272.385 224.311 270.5 228.149 269.33 231.66L268.224 234.847L266.144 230.75C263.804 226.132 261.659 223.271 261.009 223.921C260.749 224.181 261.594 227.628 262.894 231.66L262.946 231.82C266.081 241.485 266.206 241.87 265.559 241.806C265.299 241.741 263.414 240.05 261.464 238.034ZM290.067 231.53C290.522 232.376 291.302 233.612 291.888 234.262C291.958 234.34 292.024 234.414 292.086 234.483L292.088 234.485C292.47 234.914 292.697 235.167 292.969 235.232C293.364 235.326 293.854 235.02 295.058 234.27L295.058 234.269L295.304 234.116C295.397 234.058 295.493 233.999 295.593 233.937C297.413 232.766 298.258 231.4 299.884 227.238C301.639 222.686 305.214 215.207 308.53 209.029C309.245 207.663 309.57 205.257 309.635 200.899C309.7 194.071 310.285 190.624 311.065 192.64C311.26 193.225 311.325 194.201 311.13 194.721C310.415 196.477 311.455 195.762 312.495 193.745C313.08 192.575 313.47 190.104 313.47 187.242C313.47 182.95 313.6 182.429 315.421 180.608C316.526 179.568 317.241 178.462 317.046 178.137C316.851 177.877 318.086 176.056 319.841 174.17L322.897 170.723V165.846C322.897 161.423 322.637 160.383 320.426 156.156C319.126 153.619 318.021 150.628 318.021 149.522C318.021 148.482 318.801 145.295 319.776 142.563C321.596 137.231 322.116 130.142 321.076 125.329C320.621 123.118 320.426 122.988 319.126 123.573C317.826 124.159 317.696 124.679 317.631 130.532C317.566 138.206 315.486 144.514 312.95 144.84C310.805 145.165 310.545 143.409 312.17 139.572C313.34 136.97 313.73 134.564 313.99 129.231C314.12 125.329 314.12 122.208 313.86 122.208C313.6 122.208 312.56 122.663 311.585 123.118C309.96 124.029 309.7 124.549 309.375 128.516C308.335 139.507 303.004 151.798 300.794 148.221C300.599 147.896 301.119 146.205 301.964 144.514C304.434 139.572 306.384 133.394 306.774 129.036C307.099 125.524 306.969 124.809 305.799 123.638C304.434 122.273 303.719 122.403 303.719 124.094C303.654 125.719 300.729 132.483 298.843 135.214C295.528 140.027 295.398 153.814 298.583 164.285C300.144 169.293 301.119 170.853 301.119 168.187C301.119 165.195 302.679 162.399 306.319 158.887C309.05 156.221 310.025 154.66 311.26 151.083L312.755 146.596V149.392C312.82 153.034 311.52 155.505 306.969 160.318C303.784 163.635 303.134 164.74 302.679 167.407C302.419 169.227 302.484 171.309 302.874 172.349C303.524 174.04 303.524 174.105 301.184 173.845C299.038 173.585 298.713 173.78 296.893 176.316C291.953 183.47 291.042 186.006 291.888 191.274C292.668 196.087 291.888 197.778 287.792 200.509C283.956 203.045 281.226 207.143 281.941 209.354C282.136 210.069 283.176 211.24 284.217 211.955C286.752 213.776 288.702 218.133 288.832 222.165L288.962 225.547L290.912 224.442C293.448 222.946 294.618 221.06 295.658 216.638C296.373 213.776 296.373 212.15 295.853 209.484C295.463 207.533 295.333 205.322 295.528 204.541C295.723 203.761 297.738 201.029 300.079 198.493C305.084 192.9 306.969 188.543 307.62 180.739C308.14 174.495 308.53 173.455 311.78 168.382C314.705 163.83 314.771 164.545 311.845 170.333C309.83 174.365 309.57 175.406 309.57 180.023C309.57 187.437 307.164 194.851 303.459 198.883C299.363 203.24 298.583 205.061 299.298 208.313C299.689 209.809 299.819 212.931 299.624 215.337C299.493 217.743 299.624 219.954 299.949 220.279C300.404 220.735 300.144 221.19 299.298 221.645C298.583 222.035 297.088 223.921 295.983 225.872C293.838 229.709 292.148 231.075 290.392 230.36C289.417 230.035 289.352 230.165 290.067 231.53ZM220.573 177.877C219.338 173.65 219.273 170.983 220.443 170.983C222.198 171.048 226.294 180.739 224.539 180.739C224.149 180.739 223.434 181.129 222.914 181.649C222.068 182.494 221.808 181.974 220.573 177.877ZM241.571 165.455C241.571 171.699 240.206 176.121 237.28 179.243C235.135 181.519 236.89 180.999 239.816 178.462C243.976 174.885 245.406 171.308 245.731 163.439L246.056 156.676L241.636 152.318C239.231 149.847 237.475 148.481 237.735 149.197C241.441 159.212 241.506 159.667 241.571 165.455ZM244.561 179.698C244.561 179.503 245.276 178.397 246.122 177.292C248.397 174.235 249.242 170.918 249.177 165.065V159.732L250.607 160.968C252.817 162.919 253.012 163.244 253.012 167.211C253.012 172.479 251.517 175.796 248.007 178.137C245.081 180.153 244.561 180.348 244.561 179.698ZM229.414 173.91C227.919 174.82 227.854 175.146 228.504 177.162C229.349 180.088 230.325 180.023 232.795 177.032C237.15 171.764 238.061 162.724 235.135 153.619C234.29 150.823 233.38 147.246 233.12 145.75C232.86 144.189 231.95 142.043 231.04 140.938L229.349 138.986L228.829 140.482C227.984 142.758 228.829 147.441 231.105 152.449C232.925 156.481 233.185 157.586 233.055 162.529C232.99 168.772 231.885 172.284 229.414 173.91ZM225.384 171.178C222.719 167.667 222.524 166.886 223.499 165.065C225.969 160.253 225.839 153.814 223.109 150.042C222.394 149.067 221.938 147.896 222.133 147.441C222.329 146.986 222.979 143.409 223.629 139.442C224.734 133.133 224.929 132.483 225.644 133.784C226.229 134.824 226.229 135.865 225.709 137.686C224.474 142.173 224.929 149.457 226.619 153.164C227.464 154.985 228.374 157.456 228.634 158.627C229.089 160.773 227.724 172.934 227.074 172.934C226.879 172.934 226.099 172.089 225.384 171.178ZM255.678 162.529C255.483 162.529 255.548 164.415 255.873 166.756C256.263 169.032 256.653 170.853 256.783 170.658C257.238 170.268 256.198 162.529 255.678 162.529ZM230.649 135.605C234.875 141.198 250.607 157.391 252.622 158.302C253.727 158.757 254.898 159.017 255.223 158.952C255.613 158.822 257.823 158.237 260.098 157.651C267.899 155.765 287.662 143.799 295.138 136.45C298.843 132.808 300.664 129.036 302.744 120.842C304.759 112.973 306.059 110.827 305.409 116.485L305.019 120.191L308.01 120.647C310.545 120.972 311.195 120.842 312.56 119.541C313.405 118.761 314.12 117.72 314.12 117.2C314.12 116.745 314.77 115.704 315.486 114.989C317.176 113.298 320.361 106.404 321.011 103.022C321.336 101.006 321.206 100.356 320.296 99.7057C319.386 98.9903 319.256 98.6651 319.906 97.8847C320.556 97.1043 320.426 96.8441 319.321 96.519C318.346 96.1938 316.526 96.7791 313.6 98.2749C309.05 100.551 307.034 102.957 306.774 106.404C306.644 107.77 306.254 108.29 305.149 108.42C304.044 108.615 303.719 108.29 303.719 107.315C303.719 106.274 303.329 105.949 302.094 105.949C301.249 105.949 299.298 105.494 297.868 104.908C296.373 104.323 295.073 103.998 294.943 104.128C294.748 104.323 294.033 106.599 293.253 109.266C291.497 115.444 290.262 118.045 288.312 119.346C286.557 120.452 274.205 122.338 271.8 121.817C267.379 120.907 264.194 119.996 262.634 119.216C260.943 118.305 260.878 118.371 260.683 120.387C260.553 121.687 260.098 122.598 259.448 122.728C258.668 122.858 258.538 122.403 258.733 120.712C259.058 117.915 257.433 116.224 252.492 113.948C250.022 112.843 249.112 112.127 249.372 111.477C250.087 109.526 247.812 110.566 246.772 112.647C246.187 113.753 245.016 115.509 244.106 116.485L242.481 118.175L243.846 118.956C245.601 119.866 247.227 119.346 249.762 117.2C252.037 115.314 252.427 116.094 250.282 118.11C248.267 119.931 246.252 120.907 244.496 120.907C243.391 120.907 243.196 121.232 243.391 122.533C243.716 123.963 243.521 124.159 241.961 124.159C239.686 124.159 238.255 122.598 239.296 121.297C239.816 120.647 239.816 120.257 239.101 119.671C238.451 119.151 238.06 119.086 237.735 119.606C236.955 120.907 230.584 123.703 227.594 124.094L224.539 124.484L226.294 128.386C227.334 130.532 229.284 133.784 230.649 135.605ZM265.689 139.507C263.934 140.677 260.683 142.108 258.538 142.693C256.458 143.214 253.793 143.669 252.687 143.669C250.347 143.669 245.862 140.677 245.862 139.117C245.862 138.401 244.821 137.621 243.001 136.905C239.036 135.344 238.126 132.613 241.636 132.613C242.481 132.613 243.911 131.898 244.821 130.987C245.732 130.077 246.902 129.361 247.487 129.361C249.762 129.361 261.659 131.377 262.699 131.963C264.844 133.068 270.435 133.459 272.515 132.613L274.465 131.833L272.84 130.532C270.305 128.581 270.695 127.15 273.555 127.605C276.22 128.061 278.886 129.621 279.471 131.052C280.186 132.873 276.35 139.572 275.05 138.791C274.725 138.531 274.465 137.556 274.465 136.45C274.465 135.41 274.335 134.564 274.205 134.564C273.685 134.564 269.2 137.23 265.689 139.507ZM255.613 123.443C255.613 123.118 254.573 122.338 253.337 121.817C251.582 121.102 250.737 121.037 249.697 121.557C248.657 122.142 248.527 122.468 249.177 123.248C250.022 124.289 255.613 124.549 255.613 123.443ZM312.69 108.615C313.795 109.786 313.665 113.818 312.43 115.574C310.48 118.37 309.115 116.94 310.545 113.493C311.585 111.022 310.935 110.371 309.18 112.127C307.815 113.493 306.319 113.363 306.319 111.867C306.319 110.046 311.585 103.868 314.38 102.372C316.201 101.396 316.981 101.266 317.891 101.787C319.256 102.632 319.646 105.429 318.671 107.25C317.631 109.201 316.851 108.81 316.591 106.274L316.396 103.933L314.12 105.884C312.3 107.445 311.975 107.965 312.69 108.615ZM248.917 139.377C249.567 140.287 250.542 141.133 251.062 141.263C252.037 141.458 255.613 140.287 260.618 138.076L263.089 136.97L260.163 136.385C257.108 135.8 252.102 136.125 249.372 137.165C248.586 137.48 248.181 137.642 248.103 137.902C248.02 138.181 248.312 138.57 248.917 139.377L248.917 139.377ZM359.431 146.661C357.481 143.734 351.37 140.417 341.359 136.905C337.653 135.605 333.233 131.898 332.713 129.622C332.453 128.711 332.323 127.801 332.453 127.736C332.583 127.605 334.598 128.061 336.873 128.646C339.214 129.296 343.764 130.077 347.015 130.337L352.865 130.792L356.571 134.044C361.447 138.271 363.397 143.149 361.837 147.181C361.251 148.612 360.601 148.482 359.431 146.661ZM330.308 121.752C332.323 123.963 337.914 126.11 343.374 126.76C343.699 126.797 344.008 126.832 344.302 126.865C348.088 127.297 349.311 127.437 349.701 126.932C349.887 126.691 349.883 126.304 349.877 125.731C349.876 125.625 349.875 125.513 349.875 125.394C349.875 123.703 349.68 123.443 348.77 123.833C348.12 124.094 345.65 124.484 343.309 124.614C338.499 125.004 333.753 123.768 330.568 121.427L328.747 119.996L330.308 121.752ZM220.443 117.33C219.58 116.946 219.036 116.704 218.669 116.3C218.041 115.609 217.935 114.443 217.648 111.282V111.282V111.282C217.388 108.55 217.128 105.689 217.063 104.973C216.933 103.803 217.258 103.673 219.728 103.868C222.848 104.128 222.978 103.868 221.158 101.592C219.663 99.6406 219.273 94.2428 220.703 94.2428C223.043 94.2428 232.21 95.8036 232.21 96.1938C232.21 96.4539 231.43 97.2343 230.454 97.8196C227.204 99.9007 225.059 102.242 225.059 103.803C225.059 106.339 226.879 106.339 229.544 103.738C230.844 102.437 232.145 101.397 232.405 101.397C232.665 101.397 232.86 102.437 232.86 103.673C232.86 105.299 233.185 106.144 234.03 106.469C234.81 106.794 234.42 106.989 232.535 107.25C230.844 107.445 229.934 107.9 229.934 108.55C229.934 109.721 233.965 110.501 237.605 109.981C239.751 109.721 240.076 109.461 239.751 108.29C239.491 107.315 239.816 106.599 240.661 106.079C241.376 105.624 241.961 104.648 241.961 103.933C241.961 102.957 242.286 102.697 242.936 102.957C243.586 103.152 243.196 102.242 241.961 100.486C240.921 98.8602 240.011 97.4294 240.011 97.2343C240.011 96.2588 242.546 97.9497 244.756 100.356C246.967 102.697 247.227 102.827 246.837 101.397C246.512 100.096 246.577 99.9658 247.162 100.876C248.072 102.372 245.926 108.615 244.171 109.526C243.391 109.916 242.936 110.501 243.001 110.827C243.456 112.322 240.661 114.599 236.435 116.094C230.649 118.175 223.694 118.696 220.443 117.33ZM269.72 117.265C264.389 116.029 257.823 112.192 255.548 109.006C253.792 106.599 253.597 105.884 253.792 102.112C253.988 98.535 254.248 97.7546 255.613 96.7791C258.018 94.9581 264.259 92.9421 265.104 93.6575C265.494 93.9826 265.949 94.1127 266.079 93.9176C266.274 93.7875 269.395 93.2022 273.1 92.6169C281.291 91.3162 286.947 91.9666 289.157 94.4379C290.782 96.3889 291.172 101.527 289.807 103.478C289.287 104.193 289.027 105.169 289.157 105.559C289.677 106.859 286.362 112.843 284.151 114.664C280.836 117.46 275.05 118.501 269.72 117.265ZM279.146 111.022C282.136 110.111 282.266 108.42 279.406 107.9C277.716 107.64 277.651 107.51 278.561 106.664C279.211 106.209 279.666 105.104 279.666 104.258C279.666 102.372 280.706 102.307 282.916 103.998C284.932 105.559 287.467 105.689 287.467 104.258C287.467 100.486 279.601 94.2428 274.79 94.2428C270.37 94.2428 260.813 100.811 260.813 103.933C260.813 105.949 262.699 105.624 265.169 103.217C266.339 102.047 267.314 101.527 267.314 101.982C267.314 102.502 267.704 102.697 268.289 102.437C269.005 102.177 269.265 102.502 269.265 103.543C269.265 105.234 270.305 106.794 272.125 107.705C273.035 108.225 272.45 108.29 270.045 108.03C267.249 107.77 266.599 107.9 266.274 108.875C265.559 110.761 267.704 111.802 272.385 111.802C274.725 111.802 277.716 111.477 279.146 111.022ZM274.465 102.437C274.465 101.917 274.725 101.332 274.985 101.136C275.83 100.616 277.261 101.852 276.806 102.632C276.155 103.673 274.465 103.543 274.465 102.437ZM209.457 106.274C209.132 106.079 208.807 106.209 208.807 106.534C208.807 106.924 209.132 107.25 209.457 107.25C209.847 107.25 210.107 107.12 210.107 106.989C210.107 106.794 209.847 106.469 209.457 106.274ZM249.112 103.868C249.112 99.1854 246.707 94.2428 243.326 91.7715C240.921 90.0155 240.011 89.8204 233.51 89.3652C226.554 88.9099 224.734 88.2596 227.919 87.4792C228.764 87.2841 230.91 86.4386 232.665 85.6582C234.485 84.8128 236.76 84.2925 238.256 84.4226C241.636 84.6827 241.311 83.4471 237.605 81.8212C233.9 80.2604 231.04 80.4555 226.749 82.6016C223.369 84.2925 222.328 86.2435 224.149 87.5442C225.189 88.2596 224.929 88.3897 222.263 88.3897C219.143 88.3897 218.493 87.8044 220.183 86.4386C220.768 85.9834 220.963 85.0079 220.768 83.8373C220.313 81.6261 221.418 79.4149 223.369 78.6345C227.009 77.2688 236.24 69.9199 239.101 66.0829C240.791 63.8717 242.416 62.1158 242.741 62.2458C243.131 62.3109 243.781 62.1158 244.301 61.6605C245.797 60.4249 253.468 58.9291 257.823 59.1242C258.798 59.1242 259.968 58.8641 260.423 58.5389C261.789 57.4333 267.314 56.848 270.045 57.4983C271.15 57.8235 272.58 57.5634 273.88 56.913C276.546 55.6123 278.106 55.6123 278.626 56.913C278.821 57.4983 279.601 57.8235 280.446 57.6934C281.486 57.5634 281.941 57.8885 282.266 59.1242C282.656 60.685 283.111 60.8801 285.842 60.3598C286.882 60.1647 287.142 60.555 287.532 62.6361C287.727 64.0018 288.507 65.6276 289.222 66.2129C289.937 66.7982 290.717 68.0339 290.977 69.0744C291.237 70.2451 291.823 70.8304 292.668 70.8304C293.643 70.8304 293.968 71.2856 293.968 72.6513C293.968 73.7569 294.618 75.1227 295.593 76.0331C296.828 77.1387 297.218 78.2443 297.218 80.1953C297.218 83.2519 299.298 88.2596 300.794 88.7799C301.899 89.2351 302.094 91.4463 301.119 93.8526C300.729 94.9581 300.729 96.1288 301.184 97.2343C302.029 99.5756 301.509 99.9007 298.843 98.6001C296.698 97.5595 296.568 97.4294 297.478 96.0637C297.933 95.2183 298.518 93.3973 298.713 91.9666C299.038 89.7554 298.843 89.1701 297.543 88.1946C296.698 87.6093 294.228 86.8939 292.018 86.6337C289.352 86.3736 288.117 85.9834 288.117 85.333C288.117 84.8778 287.337 84.1624 286.362 83.7722C285.322 83.382 282.786 82.2114 280.576 81.1708C278.366 80.1303 276.025 79.2849 275.375 79.2849C274.725 79.2849 271.8 80.0002 268.94 80.9107C266.079 81.8212 263.154 82.5366 262.439 82.5366C259.968 82.5366 258.473 85.268 260.488 86.0484C261.074 86.2435 263.544 85.9834 266.079 85.4631C269.525 84.7477 271.93 84.6177 275.83 85.0729C278.691 85.3981 281.226 85.7883 281.421 85.9834C281.551 86.1785 280.316 86.5037 278.561 86.7638C273.62 87.3491 262.179 90.0806 258.083 91.6414C256.068 92.3568 253.468 93.8526 252.362 94.8931C250.347 96.7791 250.347 96.9092 250.542 102.047C250.672 105.884 250.542 107.25 249.957 107.25C249.372 107.25 249.112 106.144 249.112 103.868ZM238.19 100.746C236.63 100.746 235.915 102.242 236.955 103.283C237.995 104.323 238.971 103.803 239.231 102.177C239.426 101.136 239.101 100.746 238.19 100.746ZM215.307 96.9092C215.307 96.1938 215.633 95.4134 215.958 95.2183C216.348 94.9582 216.608 95.5435 216.608 96.454C216.608 97.3645 216.348 98.1449 215.958 98.1449C215.633 98.1449 215.307 97.5596 215.307 96.9092ZM305.344 96.584C304.499 95.3483 304.434 94.698 304.954 93.6574C306.254 91.2512 305.799 88.4547 303.784 86.5687C301.704 84.5526 300.469 81.431 300.469 78.1142C300.469 76.6835 299.884 75.1877 298.843 73.952C297.933 72.9115 297.218 71.3506 297.218 70.4402C297.218 69.5297 296.568 68.4891 295.593 67.8388C293.318 66.343 293.578 65.8227 296.893 65.4975C304.564 64.5871 313.015 57.4333 318.021 47.483C319.906 43.711 320.101 42.8005 319.841 38.8334C319.711 36.4272 319.841 34.4111 320.166 34.4111C322.507 34.4111 325.172 38.1181 325.172 41.3698C325.172 44.2313 322.637 52.6207 320.751 56.0676C318.541 60.2298 311.78 66.4731 308.01 67.9038C304.369 69.2695 304.109 70.3751 307.49 69.8549C311.455 69.1395 317.696 65.8227 320.296 62.8962C323.287 59.6445 326.147 53.4662 327.642 47.0928L328.812 42.2803L332.323 44.0362L335.898 45.8572L335.963 49.0438C336.028 50.8648 336.418 53.5963 336.808 55.092C338.759 62.3759 333.818 71.0905 324.262 77.3338C320.361 79.8051 313.99 82.5366 311.91 82.5366C310.35 82.5366 309.96 83.9673 311.195 84.9428C312.95 86.1785 317.891 85.9834 321.076 84.4876C331.738 79.675 339.669 69.4646 339.734 60.62C339.799 58.3438 339.864 56.5228 339.929 56.5228C339.994 56.5228 340.579 57.4333 341.099 58.4738C342.789 61.7256 342.724 70.4402 340.969 74.2122C337.458 81.8862 330.828 86.1134 318.151 88.7799C308.27 90.861 307.425 91.7064 313.73 92.877C317.566 93.5924 322.832 92.6819 329.137 90.2756C337.393 87.089 342.659 81.431 345.324 72.9115L346.495 69.2045L347.275 71.1555C347.86 72.6513 347.86 73.5618 347.275 75.0576C346.885 76.1632 346.105 78.8296 345.52 81.0408C344.999 83.2519 343.764 86.1785 342.789 87.5442C340.514 90.6659 334.403 95.4134 331.218 96.584C327.707 97.8196 323.222 97.7546 322.246 96.4539C321.856 95.8686 320.036 95.1532 318.281 94.8281C315.486 94.4378 314.576 94.5679 310.935 96.2588C308.66 97.2994 306.709 98.1448 306.579 98.1448C306.449 98.1448 305.864 97.4294 305.344 96.584ZM317.306 74.9925C325.757 70.7653 335.768 53.9864 333.948 46.9627C333.558 45.3368 333.363 45.727 332.258 50.0193C329.657 60.2297 323.482 68.6842 315.941 72.3911C312.625 74.017 311.91 74.1471 307.229 73.6918C301.574 73.2366 301.249 73.8869 306.319 75.6428C310.545 77.0736 313.405 76.8785 317.306 74.9925ZM210.757 88.0644C210.757 86.8938 213.292 84.2274 215.438 83.1218C217.908 81.8862 218.818 82.2764 216.933 83.8372C216.413 84.2924 215.958 85.463 215.958 86.5036C215.958 88.2595 215.763 88.3896 213.357 88.3896C211.927 88.3896 210.757 88.2595 210.757 88.0644ZM254.508 53.3361C252.232 54.3767 250.412 55.4823 250.412 55.6774C250.412 56.2627 259.123 55.1571 259.838 54.5067C260.163 54.1816 261.139 53.9214 261.984 53.9214C262.829 53.9214 264.129 53.5963 264.909 53.141C266.794 52.1655 273.88 51.9054 274.985 52.7508C275.635 53.3361 276.741 52.6207 279.731 49.6292C283.566 45.8572 283.566 45.7921 283.566 42.0201C283.566 37.5978 282.266 34.9314 279.341 33.1755C275.7 30.9643 274.075 30.9643 271.605 33.1104C268.94 35.4517 265.819 40.2642 264.779 43.646C263.739 46.8977 259.383 50.9949 254.508 53.3361ZM309.7 45.7271C306.514 52.1655 302.874 55.7424 297.608 57.7585C295.593 58.4738 293.643 59.1242 293.253 59.1242C292.018 59.1242 293.383 57.8235 295.853 56.5228C298.974 54.962 301.704 51.9054 304.564 46.6376C309.115 38.5083 309.83 32.1999 306.905 27.3224L305.604 25.2413L307.1 25.4364C307.945 25.5664 309.375 26.8021 310.48 28.428C312.235 30.8993 312.43 31.6797 312.43 35.7768C312.365 39.7439 312.04 40.9796 309.7 45.7271Z" fill="black"/>
</svg>
